<svg xmlns="http://www.w3.org/2000/svg" xml:space="preserve" width="256" height="256" stroke="#000" stroke-width=".286" viewBox="0 0 26 26"><path d="M19 24.968v1H7v-1c0-.551.449-1 1-1h2.013A2.984 2.984 0 0 1 12 21.279V9.554a1.875 1.875 0 0 1-.88-1.587h3.76c0 .67-.353 1.254-.88 1.587v11.724a2.984 2.984 0 0 1 1.987 2.689H18c.551.001 1 .45 1 1.001zm7-9.001c-.733 2.064-2.685 3.553-5 3.553s-4.267-1.49-5-3.553h1.154l3.378-8.953c.146-.39.789-.39.936 0l3.378 8.953H26zm-2.223 0L21 8.608l-2.777 7.36h5.554zM5 5.978a.997.997 0 0 0 .95-.714c.331-.126.67-.296 1.018-.472.765-.386 1.632-.825 2.532-.825.864 0 1.404.399 1.713.739-.012.086-.026.172-.026.261a1.813 1.813 0 0 0 3.626 0c0-.089-.014-.174-.026-.26.308-.339.848-.74 1.713-.74.9 0 1.767.438 2.531.824.349.176.688.346 1.019.472a.997.997 0 0 0 .95.714 1.01 1.01 0 1 0 0-2.02c-.288 0-.545.124-.729.318a13.013 13.013 0 0 1-.789-.376c-.864-.437-1.843-.932-2.982-.932-.996 0-1.69.379-2.161.787a1.806 1.806 0 0 0-.788-.506c.373-.2.635-.581.635-1.032C14.186 1.561 13 .032 13 .032s-1.186 1.529-1.186 2.184c0 .452.262.832.635 1.032a1.798 1.798 0 0 0-.788.506c-.471-.408-1.165-.787-2.161-.787-1.139 0-2.119.495-2.983.932a11.9 11.9 0 0 1-.788.376 1.006 1.006 0 0 0-1.739.692A1.01 1.01 0 0 0 5 5.978zm0 13.543c-2.315 0-4.267-1.49-5-3.553h1.154l3.378-8.953c.146-.39.789-.39.936 0l3.378 8.953H10c-.733 2.063-2.685 3.553-5 3.553zm2.777-3.554L5 8.608l-2.777 7.36h5.554z" style="fill:#000"/></svg>