<svg xmlns="http://www.w3.org/2000/svg" xml:space="preserve" width="256" height="256" viewBox="0 0 458.123 458.123"><path d="M201.777 401.234c-6.124-4.595-12.371-10.064-18.551-16.245-.471-.473-61.162-61.307-93.851-94.034a12.498 12.498 0 0 0-19.723 2.677c-3.799 6.715-5.324 12.845-4.532 18.218 1.358 9.223 9.004 18.481 20.035 29.511l65.832 66.311c11.021 11.021 20.251 18.64 29.478 20a19.71 19.71 0 0 0 2.866.206c5.283 0 11.204-2.04 17.6-6.063a12.497 12.497 0 0 0 5.833-10.067 12.499 12.499 0 0 0-4.987-10.514zm154.452-154.499-3.666-4.333a204.306 204.306 0 0 0-2.955-3.458l-.119-.133a262.069 262.069 0 0 0-9.506-9.983l-1.201-1.202a9.49 9.49 0 0 0-.27-.26c-29.479-27.77-55.748-28.096-83.566-28.44-17.805-.22-34.624-.428-52.621-7.072-17.623-6.506-33.936-20.103-44.756-37.304-10.137-16.115-13.78-33.249-9.747-45.828.144-.45.323-.949.532-1.488l17.321-17.319c9.779-9.78 9.779-25.693-.001-35.475l-19.146-19.146a12.5 12.5 0 0 0-17.678 0L3.661 160.483a12.505 12.505 0 0 0 0 17.679l19.146 19.145c4.738 4.738 11.038 7.348 17.737 7.348 6.699 0 12.999-2.608 17.737-7.347l15.548-15.548c8.873 16.078 10.264 31.474 11.499 45.147 1.27 14.042 2.187 24.188 10.401 32.401 26.045 26.046 105.997 106.187 106.503 106.695 18.564 18.562 34.997 27.587 50.233 27.587a37.5 37.5 0 0 0 4.42-.26c13.299-1.567 26.965-10.003 44.312-27.352l39.107-39.107c21.307-21.308 30.252-34.844 30.873-46.723.48-9.198-4.326-20.028-14.697-33.107a14.553 14.553 0 0 0-.251-.306z"/><path d="M454.461 159.098 329.271 33.906c-4.883-4.882-12.797-4.882-17.678 0l-19.145 19.146c-9.781 9.781-9.781 25.695 0 35.476l5.707 5.708c-19.286 12.094-48.024 25.681-79.774 25.683-9.262 0-18.341-1.195-27.029-3.564a12.498 12.498 0 0 0-14.7 17.311c5.202 11.181 17.484 26.527 34.978 32.986 13.652 5.041 28.898 5.23 43.643 5.413 30.422.376 68.283.846 108.289 42.371a12.495 12.495 0 0 0 13.033 3.16 12.5 12.5 0 0 0 8.393-10.46c.908-8.217 2.338-15.192 4.449-21.619l10.406 10.404c4.736 4.738 11.037 7.347 17.738 7.347 6.699 0 12.998-2.608 17.736-7.348l19.145-19.146c4.882-4.88 4.882-12.795-.001-17.676z"/></svg>